<svg width="960" height="256" viewBox="0 0 960 256" fill="none" xmlns="http://www.w3.org/2000/svg" role="img" aria-label="AsiliChain wordmark study C">
	<path d="M50 188L116 64H148L108 140H150L166 188H50Z" fill="#0F5A3A"/>
	<path d="M116 64L148 64L132 92H100L116 64Z" fill="#0F5A3A"/>
	<g transform="translate(320 0) scale(-1 1)">
		<path d="M160 84C192.033 84 218 109.967 218 142C218 174.033 192.033 200 160 200C140.443 200 123.038 191.28 111.745 177.71L130.21 161.93C136.794 169.734 146.616 174.715 157.61 174.715C177.39 174.715 193.435 158.67 193.435 138.89C193.435 119.11 177.39 103.065 157.61 103.065C146.616 103.065 136.794 108.046 130.21 115.85L111.745 100.07C123.038 86.5 140.443 77.78 160 77.78V84Z" fill="#0F5A3A"/>
		<path d="M86 131C90.2 126.2 96.95 125.9 101.8 130.1L126.95 152.4C129.35 154.5 132.95 154.4 135.18 152.15L158.55 129.5C162.8 125.3 169.35 125.4 173.55 129.65C177.75 133.85 177.65 140.4 173.45 144.6L150.1 167.15C139.1 177.8 122.2 178.05 111 168.1L85.85 145.8C81.6 141.6 81.45 135.1 85.65 130.9L86 131Z" fill="#F5F0EB"/>
		<path d="M169 157C175.075 157 180 152.075 180 146C180 139.925 175.075 135 169 135C162.925 135 158 139.925 158 146C158 152.075 162.925 157 169 157Z" fill="#0F5A3A"/>
		<path d="M169 153C172.866 153 176 149.866 176 146C176 142.134 172.866 139 169 139C165.134 139 162 142.134 162 146C162 149.866 165.134 153 169 153Z" fill="#F5F0EB"/>
	</g>

	<text x="259" y="132" fill="#0F5A3A" font-family="Inter, ui-sans-serif, system-ui, -apple-system, BlinkMacSystemFont, 'Segoe UI', sans-serif" font-size="64" font-weight="600" letter-spacing="-0.7">AsiliChain</text>
</svg>
